<?xml version="1.0" encoding="UTF-8" standalone="no"?><svg width="1500" height="600" viewBox="0 0 1500 600" xmlns="http://www.w3.org/2000/svg"><g fill="none" fill-rule="evenodd"><path d="M201.9 529.8c30.25 30.25 79.75 53.35 136.4 53.35 74.25 0 121-35.2 121-99 0-51.7-29.15-72.05-88.55-89.65-41.25-12.1-55-16.5-55-29.7 0-12.1 9.9-17.6 28.6-17.6 22.55 0 48.4 11 77.55 28.05l38.5-50.05c-33-30.25-73.7-46.75-122.1-46.75-73.7 0-121 36.85-121 95.15 0 52.8 31.35 76.45 91.85 90.75 40.7 9.9 49.5 15.4 49.5 29.7 0 11-8.25 18.7-29.15 18.7-22.55 0-62.15-14.85-89.65-34.65l-37.95 51.7zm446.25-56.65c0 25.85-18.15 46.2-43.45 46.2-23.1 0-34.1-10.45-34.1-27.5 0-27.5 22.55-34.65 50.6-34.65 12.1 0 18.15 1.1 26.95 2.75v13.2zm93.5-84.15c0-78.1-42.9-110.55-121.55-110.55-46.2 0-91.3 15.95-127.05 41.8l29.15 55.55c28.05-14.85 52.25-25.3 84.7-25.3 26.95 0 41.25 13.2 41.25 40.15v15.95c-12.1-1.65-22.55-2.2-37.95-2.2-94.05 0-131.45 41.8-131.45 91.85 0 58.85 38.5 86.9 91.85 86.9 39.05 0 69.3-15.4 88.55-41.25l8.25 34.1h74.25V389zm18.9 140.8c30.25 30.25 79.75 53.35 136.4 53.35 74.25 0 121-35.2 121-99 0-51.7-29.15-72.05-88.55-89.65-41.25-12.1-55-16.5-55-29.7 0-12.1 9.9-17.6 28.6-17.6 22.55 0 48.4 11 77.55 28.05l38.5-50.05c-33-30.25-73.7-46.75-122.1-46.75-73.7 0-121 36.85-121 95.15 0 52.8 31.35 76.45 91.85 90.75 40.7 9.9 49.5 15.4 49.5 29.7 0 11-8.25 18.7-29.15 18.7-22.55 0-62.15-14.85-89.65-34.65l-37.95 51.7zm269.15 0c30.25 30.25 79.75 53.35 136.4 53.35 74.25 0 121-35.2 121-99 0-51.7-29.15-72.05-88.55-89.65-41.25-12.1-55-16.5-55-29.7 0-12.1 9.9-17.6 28.6-17.6 22.55 0 48.4 11 77.55 28.05l38.5-50.05c-33-30.25-73.7-46.75-122.1-46.75-73.7 0-121 36.85-121 95.15 0 52.8 31.35 76.45 91.85 90.75 40.7 9.9 49.5 15.4 49.5 29.7 0 11-8.25 18.7-29.15 18.7-22.55 0-62.15-14.85-89.65-34.65l-37.95 51.7z" fill="#FF6D5B"/><path d="M748.157 567.3093c-.101-.0964-.2192-.1922-.3543-.2874-.135-.0952-.2734-.1886-.4152-.2802-.1417-.0916-.281-.1757-.4176-.2522-.1368-.0766-.2573-.1444-.3618-.2036l-.0188-.0016c-.0084-.0008-.0136-.0023-.0155-.0045-.002-.0024-.005-.0037-.0092-.004-.067-.006-.118.022-.1528.0835-.035.0615-.0602.1333-.0758.2153-.0156.082-.026.1634-.031.2442-.0048.081-.0088.1378-.0116.171-.0138.157.002.2783.0472.3636.0453.0852.097.1554.1556.2105.0584.0552.112.1068.1604.1548.0485.048.0692.1134.062.196-.005.058-.029.1122-.0712.1627-.0424.0504-.095.073-.1578.0674-.0293-.0026-.1014-.0454-.2165-.1284-.115-.083-.248-.1884-.3993-.3163-.1512-.1278-.3108-.268-.4788-.42-.168-.1523-.3228-.3003-.464-.444-.1415-.1436-.2568-.2714-.3462-.3835-.0893-.112-.132-.1907-.128-.2362.1172.0102.2345.0434.352.0995.1173.0563.2358.124.3554.2032.1196.0792.2397.1647.3603.2566.1206.0918.2408.1763.3605.2534.0042.0004.0114-.021.0214-.0637.01-.043.023-.094.0387-.153s.0305-.1192.0443-.1805c.0138-.0613.0246-.1125.0324-.1535l.0228-.2605c.0007-.0083.0045-.0278.0114-.0584.007-.0307.0098-.0638.0087-.0993-.0012-.0355-.0068-.0683-.0168-.0984-.01-.03-.0314-.0508-.0642-.062-.0324-.0153-.0816-.0425-.1478-.0817-.0662-.039-.1403-.083-.2225-.132-.0822-.0488-.1683-.1012-.2583-.157-.09-.0558-.176-.109-.258-.16-.082-.051-.155-.096-.219-.135l-.1443-.0875c-.0876-.0577-.1664-.1094-.2362-.155-.0698-.0458-.129-.0937-.1772-.1438-.0484-.05-.0834-.1073-.1052-.1717-.0218-.0645-.0283-.1463-.0196-.2456.0334.003.0935.028.18.0752.0866.047.178.0998.274.1582.096.0585.186.1143.27.1675.084.053.14.0872.1682.1022.029.0066.0744.0293.1364.068.062.039.132.0835.2097.134.078.0507.1597.1037.2455.159.086.0556.165.104.2372.146.0722.0416.133.071.182.0877.0492.0168.079.0132.0896-.011.006-.0702-.0053-.1327-.0342-.1873-.029-.0547-.0403-.117-.034-.1874.0038-.0455.016-.0893.0366-.1312.0206-.042.0602-.0604.1187-.0553.0628.0055.11.0315.142.078.0317.0466.0562.104.0734.1722.0172.0682.0327.1445.0464.229.0138.0846.0318.1675.0542.2486.0225.0812.056.156.1006.2245.0446.0685.1054.1207.1824.1567.0934.0415.2204.0963.381.1646s.317.1476.4694.238c.1524.0905.2825.1936.3905.3093.108.1157.156.242.144.3784-.003.0372-.0092.07-.018.0984-.0088.0285-.0367.047-.084.0553zm-.6734-2.4208c-.1214-.0106-.2408-.044-.3582-.1-.1174-.0562-.233-.1205-.347-.193-.1137-.0725-.2264-.146-.338-.2203-.1116-.0743-.2224-.133-.3326-.176.0392.0826.0595.152.061.2085.0013.0564-.0015.124-.0083.2025-.0008.0082-.004.034-.01.0773-.006.0432-.0093.071-.0104.0834-.0898-.033-.1685-.0857-.236-.1583-.0674-.0725-.1236-.1535-.1685-.243-.045-.0893-.081-.182-.1085-.2782-.0274-.0962-.0484-.1824-.0628-.2587-.1858-.1413-.3747-.26-.5667-.356-.192-.096-.3795-.1925-.563-.29-.1833-.0972-.357-.2082-.521-.333-.1643-.125-.3114-.2867-.4416-.4857l.2412-.01 1.7716.9364c-.0086-.0465-.0162-.1035-.023-.1708-.0068-.0672-.0135-.1356-.02-.205-.0066-.0692-.0123-.1364-.0172-.2015-.005-.065-.0116-.1207-.02-.1673.0002-.004.0003-.0166 0-.0375-.0003-.021 0-.0375.0012-.05.005-.0578.0197-.1045.044-.14.024-.0353.0728-.0622.146-.0808.0592.2885.125.5506.197.7862.0722.2355.1753.4435.3092.624.134.1806.3103.3335.5292.459.219.1254.5044.2244.8565.297.0753.0064.1448.0083.2083.0056.0635-.0028.1057-.0512.1265-.1453.0084-.0952-.0027-.1858-.033-.2718-.0306-.086-.0643-.1702-.1014-.2527-.037-.0824-.0708-.1656-.1014-.2495-.0306-.084-.0418-.1735-.0334-.2687.1004.0088.1887.0603.2648.1545.076.0942.1402.205.1923.3325.052.1275.0893.257.1116.388.022.1312.0297.238.0224.3208-.0072.083-.0305.156-.0697.219-.0393.0634-.089.1142-.1494.1527-.0603.0385-.129.0658-.2064.082-.0775.016-.156.0207-.2354.0138zm.9374-3.629c.0077.105-.0183.1975-.078.2777-.0598.0803-.1347.1414-.225.1836-.09.042-.1867.0628-.29.062-.1032-.0006-.1946-.0294-.274-.0864-.2226-.2028-.401-.3435-.5355-.422-.1344-.0784-.2307-.1108-.2888-.097-.0582.0136-.0857.0632-.0827.149.003.0857.0318.1913.0862.317.0543.1256.1278.2623.2203.41s.1963.287.3114.418c.115.131.2366.2468.3648.3476.1283.1008.2562.1693.3838.2055.0215.0436.0383.0805.0504.1107.012.0302.0165.064.0133.1012-.0055.062-.0296.0974-.0726.1062-.043.0087-.0874.011-.1334.007-.1047-.009-.2097-.0506-.315-.1244s-.2034-.1574-.2943-.2508c-.091-.0934-.1738-.183-.2485-.2687-.0748-.0857-.1358-.1474-.183-.1848-.1627-.1186-.3388-.2382-.5286-.359-.19-.1208-.3838-.242-.582-.3635-.198-.1215-.3938-.246-.5872-.3733-.1934-.1274-.377-.259-.5506-.3952-.0317-.0236-.0532-.0432-.0645-.0587-.0113-.0156-.0157-.038-.013-.0668.0028-.033.0112-.0574.0252-.0728.014-.0155.0384-.03.0733-.0436.0168.0015.0437.007.0808.0165.0373.0095.0775.0193.121.0293.0433.01.0834.022.1202.0356.0367.0136.0612.023.0734.0283.048.0292.1323.0782.2528.147.1205.069.249.1438.3853.2245.1363.0807.2698.158.4004.232.1307.074.2282.1283.2926.163-.0364-.0656-.064-.1243-.0826-.176-.0187-.0516-.0312-.1016-.0375-.15-.0063-.0486-.0082-.0988-.0058-.1507.0024-.0518.0064-.1088.0118-.171.0507-.1455.1158-.2388.1953-.2797.0795-.041.1676-.048.2643-.0207.0968.0274.201.077.3128.1494.1118.0723.2243.1478.3377.2265.1133.0786.223.1496.3292.213.1063.0636.2056.0973.298.1012.0377.0033.0656-.0026.0838-.0177.0182-.015.0326-.0346.043-.0587.0106-.024.0172-.0506.0197-.0796l.007-.0806c.0077-.087.0014-.1718-.0188-.255-.02-.083-.0435-.1652-.07-.2467-.0267-.0816-.05-.164-.0702-.247-.0202-.083-.0264-.168-.0188-.2548.0795.007.1514.053.2156.1377.0643.0847.1178.1842.1606.2984.0427.1142.0745.2326.0954.3553.021.1227.028.2233.021.302zm-1.1502-6.4095c.0035.0714.0188.166.046.284.0366.1596.076.335.1184.5262.0423.1913.08.3874.113.5882.033.201.0427.38.029.537-.0124.1407-.061.25-.1458.328-.0848.078-.2026.1105-.3533.0973-.0082-.0007-.029-.0036-.0624-.0086-.0333-.005-.054-.0078-.0625-.0085-.2147-.148-.3978-.2963-.5493-.445-.1515-.1487-.28-.307-.3855-.4745-.1055-.1676-.1928-.3514-.2617-.5512-.069-.1998-.1244-.4225-.1662-.6678-.0173-.0432-.0413-.0703-.072-.0814-.0306-.011-.0627-.018-.0962-.021-.0543-.0046-.0956.0095-.1238.0424-.0282.033-.0478.077-.059.1324-.0112.0553-.0195.114-.025.176-.0053.062-.0147.1206-.028.1757-.0132.0552-.0328.0993-.059.1325-.026.033-.0663.0473-.1207.0426-.1046-.009-.2064-.0513-.3052-.1267-.099-.0753-.1848-.165-.258-.2695-.073-.1043-.131-.2146-.1734-.331-.0427-.116-.0598-.2218-.0515-.317.0047-.0537.0222-.097.0525-.1298.0303-.0328.0663-.0588.108-.078.0418-.0193.0882-.032.1394-.038.051-.0058.0997-.0068.1457-.0028l.019-.217c-.0543-.005-.1238-.0057-.2084-.0027-.0846.003-.168.0155-.25.0375-.082.022-.1535.0553-.2144.1-.0608.0447-.0945.1043-.101.1787-.0152.1738-.0008.347.043.5196.044.1726.1135.3308.2085.4746.095.1437.2152.2636.3607.3597.1455.096.3104.1522.4945.1683.1057-.0033.1804-.0144.2243-.0335.0438-.019.0783-.0276.1034-.0254.1022.134.212.2886.3296.4635.1175.175.2473.3425.3893.503.142.1603.2973.302.4657.425.1685.1233.3526.1998.5525.2298.0962.0084.1947.0035.2954-.0148.1007-.0183.193-.0498.277-.0945.0842-.0448.155-.1053.212-.1816.0574-.0762.0908-.168.1002-.2757.0223-.1105.0336-.2398.034-.3877.0002-.148-.0096-.301-.0295-.459-.02-.158-.0506-.315-.0918-.4706-.0412-.1558-.091-.2966-.1497-.4226-.0585-.126-.1264-.23-.2036-.3117-.0208-.0218-.042-.0413-.0638-.0582.0407.001.081.0005.1208-.0015.0762-.0037.144-.0197.2035-.0478.0593-.0282.1095-.0707.1503-.1275.0408-.057.0654-.133.0737-.228l.0033-.0373c-.0017-.0293-.0047-.067-.009-.1133l-.0135-.1356c-.0046-.044-.0097-.082-.0154-.1138l-.0086-.0477-.7257-1.0325c.1927-.0332.3434-.093.4522-.1793.1086-.0863.187-.1857.2347-.2982.0478-.1126.0705-.2273.068-.3442-.0023-.1168-.0185-.2214-.0484-.3136-.03-.0922-.067-.161-.1116-.2067-.0445-.0456-.086-.0544-.1242-.0265-.0383.028-.067.1035-.0863.227-.0192.1233-.0166.311.0077.5632-.0623.132-.1583.1935-.2882.1843-.13-.0093-.2784-.0598-.4454-.1515-.167-.0918-.3463-.2116-.538-.3597-.1915-.148-.38-.2948-.5656-.4402-.0755-.0525-.1703-.114-.2843-.1843-.114-.0704-.233-.1444-.357-.222-.124-.0775-.248-.154-.3722-.2294-.124-.0755-.2374-.1427-.3397-.2017-.1024-.059-.1857-.107-.25-.1438-.0642-.037-.1006-.0557-.109-.0565l-.266.2206c-.0007.0083.0362.0448.1107.1097.0744.065.1648.1405.271.227.1064.0863.2158.174.3282.263.1124.089.2064.1598.282.2123.0434.033.12.0855.2297.1576.1096.072.2264.148.35.2275.124.0796.2418.1545.3537.2247.112.0702.19.1177.2342.1424l-.0033.0372c-.007.0786-.028.1518-.0636.2196-.0354.0677-.0566.141-.0634.2195-.0174.1984.0114.4114.0864.639.075.2273.182.4388.321.6344.1388.1955.3036.361.4942.4965.167.1185.341.1922.5222.221zm.0438-.3998c.025.0022.0543.0058.0876.0108.0333.005.0638.0056.0916.0017.0277-.0038.053-.014.0754-.031.0226-.0167.0355-.0437.0387-.081.0046-.0537-.0095-.1205-.0426-.2005-.033-.08-.0736-.1596-.1214-.239-.048-.079-.0963-.153-.145-.222-.049-.069-.0846-.119-.1072-.15-.0267-.0315-.0754-.09-.146-.1753-.0705-.0855-.146-.1744-.2265-.267-.0805-.0924-.155-.179-.224-.2602-.0688-.081-.1186-.1375-.1496-.1694l-.0188-.0016c-.0085-.0008-.0136-.0022-.0156-.0045-.002-.0022-.005-.0036-.009-.004-.0378-.0032-.067.0057-.0878.0268-.021.0212-.0358.047-.0448.0774-.009.0305-.014.0624-.0147.0957-.0007.0333-.002.0603-.0038.081-.013.149.0046.3088.053.4798.0483.171.1197.3303.2143.4782.0946.148.21.2737.3466.3773.1365.1037.2863.1626.4496.177zm.3496-2.7607c-.0586-.0052-.1093-.0158-.152-.032-.043-.0163-.0985-.044-.1667-.0834-.0393-.0326-.1142-.0922-.2247-.179l-.349-.2744c-.1223-.096-.2377-.1875-.346-.274-.1084-.0866-.1843-.1464-.2278-.1794-.051-.042-.078-.0735-.0803-.0946-.0023-.021-.001-.0605.004-.1184.0033-.0372.009-.0774.017-.1204.008-.043.0396-.0684.095-.076.1373.0703.2654.1596.3846.268.119.1083.2373.2145.3547.3186.1173.104.2388.197.3645.2788.1256.082.2637.1294.4144.1426.0013-.0166.0057-.0422.013-.077.0072-.0348.0147-.0727.0225-.1137.0078-.041.0154-.0788.0226-.1136.0074-.0348.0096-.0606.007-.0776-.002-.025-.0078-.0684-.0172-.1296l-.0303-.1965c-.0107-.0697-.0218-.1363-.033-.1998-.0114-.0636-.02-.108-.0263-.1337.0083.0008.022.001.041.0005.019-.0004.0327-.0003.041.0005.0838.0073.1495.0516.1972.133.0477.081.0828.1738.1053.278.0225.104.0344.2092.0356.3156.0012.1063-.0007.1884-.0058.2463-.0054.062-.0182.1245-.0385.1874-.0202.0628-.0493.1176-.087.1643-.038.0467-.0843.0832-.1393.1097-.055.0264-.1202.0364-.1955.0298zm-3.355-2.007c.0048-.054.0112-.1033.0194-.1485.008-.045.022-.0835.0417-.115.0196-.0317.047-.0564.0824-.0742.0353-.0177.0822-.024.1408-.019l.0816.0072c.0294.0026.0574.0082.084.0168.0267.0086.0487.022.066.04.0175.0183.0246.046.0213.0833-.005.058-.03.1027-.075.1342-.045.0315-.0964.053-.1543.0646-.058.0116-.1164.017-.1754.016-.059-.001-.103-.0028-.1323-.0054zm3.1182.514c-.1214-.0106-.2408-.044-.3582-.1-.1174-.0562-.233-.1205-.3468-.193-.114-.0724-.2266-.1458-.3382-.2202s-.2224-.133-.3325-.176c.039.0826.0594.152.0608.2085.0014.0564-.0013.124-.0082.2025-.0007.0082-.004.034-.01.0772-.0058.0433-.0093.071-.0104.0835-.09-.033-.1687-.0856-.236-.1582-.0676-.0726-.1238-.1535-.1687-.243-.045-.0893-.081-.182-.1085-.2782-.0274-.0962-.0483-.1824-.0627-.2587-.1858-.1414-.3747-.26-.5666-.356-.192-.096-.3796-.1927-.563-.29-.1834-.0973-.357-.2084-.5212-.3332-.164-.1248-.3113-.2867-.4415-.4856l.2413-.01 1.7716.9363c-.0085-.0466-.0162-.1035-.023-.1708-.0068-.0673-.0134-.1356-.02-.205-.0066-.0693-.0123-.1365-.0172-.2015-.0048-.065-.0115-.1208-.02-.1674.0002-.0042.0003-.0167 0-.0375-.0003-.021 0-.0375.0012-.05.005-.0578.0197-.1045.044-.14.024-.0353.0728-.0623.146-.081.0592.2887.125.5508.197.7863.0722.2356.1753.4436.3092.624.134.1807.3103.3336.5292.459.219.1255.5044.2244.8565.297.0754.0065.1448.0084.2083.0056.0635-.0027.1057-.051.1266-.1452.0083-.095-.0028-.1857-.0332-.2717s-.0642-.1703-.1012-.2527c-.037-.0824-.071-.1656-.1016-.2496-.0306-.084-.0417-.1735-.0334-.2686.1004.0088.1887.0603.2648.1545.076.094.1402.205.1924.3324.052.1275.0892.257.1115.388.0223.1312.0298.238.0226.3208-.0073.0827-.0305.1557-.0698.219-.0393.0632-.089.114-.1494.1526-.0602.0385-.129.0658-.2063.082-.0773.016-.1558.0207-.2353.0138zm-.094-1.8105c-.0587-.0052-.1095-.016-.1523-.032-.0428-.0164-.0983-.0442-.1666-.0835-.0393-.0326-.1142-.0923-.2247-.179l-.3493-.2744c-.1223-.096-.2376-.1874-.346-.274-.1085-.0866-.1844-.1464-.228-.1794-.051-.042-.0778-.0735-.0802-.0945-.0024-.021-.001-.0605.004-.1184.0033-.0372.009-.0773.017-.1204.008-.043.0396-.0684.095-.076.1373.0703.2655.1596.3847.268.119.1084.2373.2146.3547.3186.1175.104.239.197.3647.279.1257.0817.264.1293.4145.1424.0014-.0165.0058-.0422.013-.077.0073-.0347.0148-.0726.0226-.1136.0078-.041.0153-.079.0226-.1137.0073-.035.0095-.0608.0068-.0777-.002-.0252-.0077-.0684-.017-.1296l-.0304-.1965c-.0108-.0697-.0218-.1363-.033-.1998-.0114-.0635-.0202-.108-.0264-.1336.0084.0007.022.001.041.0005.019-.0005.0328-.0003.0412.0004.0837.0074.1494.0517.197.133.0478.0812.083.174.1055.278.0224.104.0343.2093.0355.3157.0012.1064-.0007.1885-.0057.2464-.0055.062-.0183.1245-.0386.1873-.0202.063-.0493.1177-.087.1644-.038.0468-.0843.0833-.1394.1098-.055.0264-.1202.0363-.1955.0298zm-3.3058-2.2065c.0048-.0538.0112-.1033.0194-.1484.008-.045.022-.0834.0417-.115.0196-.0316.047-.0563.0824-.074.0353-.0178.0823-.0242.141-.019l.0815.007c.0293.0027.0573.0083.084.0168.0266.0086.0486.022.066.0402.0174.0182.0245.046.0212.083-.005.058-.03.1027-.075.1342-.045.0315-.0964.053-.1543.0647-.058.0115-.1164.0168-.1754.0158-.059-.001-.103-.0028-.1324-.0053zm3.3107.7167c-.0168-.0015-.0512-.0056-.1034-.0122-.0522-.0067-.0866-.0107-.1034-.0122-.294-.159-.5616-.3534-.803-.583-.2414-.2294-.4512-.4832-.6293-.7614.0008-.0083-.0012-.022-.0058-.041-.0047-.0193-.0067-.033-.006-.0413.0098-.1116.042-.2015.0964-.2697.0544-.068.1222-.1206.2035-.1572.0812-.0366.1696-.059.2652-.0674.0957-.0083.1874-.0086.2753-.001.1632.0144.3305.0666.502.1566.1713.09.3257.2046.4633.3437.1375.139.2463.2934.3264.463.08.1695.1125.3412.0973.515-.0152.1736-.0736.2987-.1752.3753-.1016.0765-.236.1075-.4035.093zm.0102-.4898c.046.004.079-.012.099-.0476.02-.0358.0317-.0723.035-.1095.009-.1034-.0105-.2062-.0585-.3083-.048-.1022-.1115-.1953-.1906-.2793-.079-.084-.169-.1533-.2697-.208-.1006-.0547-.199-.0862-.2954-.0946-.046-.004-.0975-.0053-.1546-.004-.057.0012-.1084.0102-.1542.027-.0457.017-.083.046-.112.0872-.029.0412-.0384.102-.0286.182.0074.059.056.13.1458.2127.0898.0828.1955.164.3172.2434.1216.0794.2443.1474.368.204.1237.0568.2232.0884.2985.095zm.1773-1.6078l-.088-.0076c-.0208-.002-.0404-.0067-.0587-.0146-.0182-.0078-.0373-.019-.057-.033-.02-.0143-.0457-.0333-.0774-.057-.0557-.038-.1528-.109-.2914-.213-.1385-.1037-.2848-.2145-.439-.3322s-.3005-.2294-.4388-.3353c-.1384-.106-.2352-.18-.2905-.2225-.004-.0045-.005-.016-.0034-.0346l.0035-.0405.004-.0434c.0017-.0206.005-.0328.0094-.0366.0046-.0038.016-.012.034-.0252.018-.013.037-.028.0576-.045.0204-.017.0397-.032.0577-.045.018-.013.0273-.0235.028-.0318.0033-.0372-.0058-.0776-.0273-.1212-.0215-.0436-.046-.0884-.0736-.1346-.0276-.0462-.052-.093-.073-.1408-.0212-.0477-.0296-.0964-.0253-.146.0047-.0538.0216-.1023.0507-.1456.029-.0433.064-.08.1045-.1096.0406-.0298.0847-.052.1323-.0666.0477-.0146.0946-.02.1406-.016.0963.0086.1872.03.2727.0646.0856.0346.1698.0722.2527.1128.083.0406.166.078.2495.1125.0835.0343.1712.0555.2633.0636.092.008.159.0034.2005-.0138.0416-.0172.0665-.0733.0748-.1685.01-.1116.0025-.2196-.022-.324-.0248-.1042-.0324-.21-.023-.3176.1005.0088.1816.046.2433.112.0617.0658.1086.145.1405.2373.032.0924.051.19.0567.2925.0058.1027.005.1953-.0022.278-.0137.1572-.0688.268-.165.3326-.0964.0646-.22.0903-.3706.077-.1004-.0087-.193-.0345-.278-.0774-.0847-.0428-.167-.0896-.247-.1404-.08-.0507-.16-.0984-.2405-.143-.0805-.0445-.1688-.071-.265-.0794-.0252-.0022-.059-.001-.1016.0036s-.066.0297-.07.0752c-.0118.1365.0214.2634.0997.3807.0783.1173.1805.2263.3067.327.126.1005.2635.1938.412.2798.1485.086.287.167.4153.2427.1283.0758.234.1466.3167.212.0828.0657.1215.1296.116.1916-.0075.087-.041.1548-.1.2038-.059.049-.1305.07-.2142.0626z" stroke="#F46553" stroke-width=".2" fill="#F56553"/></g></svg>